# xmcd
#
# Track frame offsets:
#	150
#	21532
#	39295
#	58927
#	76675
#	98972
#	125097
#	144345
#	176975
#	191857
#
# Disc length: 2798 seconds
#
# Revision: 1
# Processed by: cddbd v1.5PL3 Copyright (c) Steve Scherf et al.
# Submitted via: CDex 1.50Beta5
#
DISCID=8f0aec0a
DTITLE=What’s Love? - 明けゆく空に
DYEAR=2002
DGENRE=Rock
TTITLE0=泣けるほど(album mix)
TTITLE1=今年の夏(album mix)
TTITLE2=口笛
TTITLE3=それとなく 悪びれず
TTITLE4=アメリカ
TTITLE5=ゆくりなく
TTITLE6=窓の外に映るのはあなた
TTITLE7=夜明けの散歩道
TTITLE8=あの鐘を鳴らすのはあなた(What’s Love?と横山剣)
TTITLE9=かえり路〜the way back home〜
EXTD=
EXTT0=
EXTT1=
EXTT2=
EXTT3=
EXTT4=
EXTT5=
EXTT6=
EXTT7=
EXTT8=
EXTT9=
PLAYORDER=
